<svg width="30" height="28" viewBox="0 0 30 28" fill="none" xmlns="http://www.w3.org/2000/svg">
<path d="M29.8113 5.16285C29.6154 4.82384 29.2955 4.62156 28.9539 4.62156H15.6791C15.3053 4.62156 14.9599 4.86352 14.7728 5.25597C14.5859 5.64842 14.5859 6.13205 14.7728 6.52443C14.9599 6.91688 15.3053 7.15884 15.6791 7.15884H27.4583L24.2992 17.6654H13.0643L8.47571 0.978931C8.4062 0.726153 8.27285 0.506487 8.09462 0.350752C7.91638 0.195016 7.70243 0.111084 7.48282 0.111084H1.04673C0.672671 0.111084 0.327252 0.353042 0.140372 0.745491C-0.0467908 1.13794 -0.0467908 1.62157 0.140372 2.01395C0.327266 2.4064 0.672657 2.64836 1.04673 2.64836H6.72851L11.3171 19.3349C11.3866 19.5877 11.5199 19.8073 11.6982 19.9631C11.8761 20.1188 12.0903 20.2024 12.31 20.2024H25.0315C25.2462 20.2024 25.4556 20.1224 25.6314 19.9732C25.8075 19.824 25.9413 19.6129 26.0146 19.3683L29.9367 6.32446C30.0536 5.93562 30.0068 5.50218 29.811 5.16284L29.8113 5.16285Z" fill="white"/>
<path d="M11.7299 21.5498C11.0364 21.5498 10.3713 21.8839 9.88096 22.4783C9.3906 23.0726 9.11523 23.8789 9.11523 24.7195C9.11523 25.5598 9.39057 26.366 9.88096 26.9604C10.3713 27.5548 11.0364 27.8888 11.7299 27.8888C12.4233 27.8888 13.0884 27.5548 13.5788 26.9604C14.0692 26.366 14.3445 25.5597 14.3445 24.7192C14.3445 23.8785 14.0692 23.0727 13.5788 22.4783C13.0884 21.8839 12.4233 21.5498 11.7299 21.5498Z" fill="white"/>
<path d="M25.81 21.5498C25.1165 21.5498 24.4514 21.8839 23.961 22.4783C23.4707 23.0726 23.1953 23.8789 23.1953 24.7195C23.1953 25.5598 23.4707 26.366 23.961 26.9604C24.4514 27.5548 25.1165 27.8888 25.81 27.8888C26.5034 27.8888 27.1685 27.5548 27.6589 26.9604C28.1492 26.366 28.4246 25.5597 28.4246 24.7192C28.4246 23.8785 28.1493 23.0727 27.6589 22.4783C27.1685 21.8839 26.5034 21.5498 25.81 21.5498Z" fill="white"/>
</svg>
