<svg width="115" height="24" viewBox="0 0 115 24" fill="none" xmlns="http://www.w3.org/2000/svg">
<path d="M6.25 21.9844L1.5625 22V14.1875H0V9.48438L1.5625 9.46875V1.59375H6.23438L6.25 9.5H10.9688L10.9531 1.67188H15.625V22L10.9375 23.6875V14.125H6.25V21.9844ZM21.8438 9.48438V14.1875C21.8333 16.2812 22.8802 17.3281 24.9844 17.3281C27.0365 17.3281 28.0729 16.2812 28.0938 14.1875L28.0469 9.54688C28.0781 7.44271 27.0677 6.39062 25.0156 6.39062C22.9115 6.39062 21.8542 7.42188 21.8438 9.48438ZM32.7812 9.5L32.75 14.2188C32.75 19.4062 30.1667 22.0052 25 22.0156C19.7604 22.0052 17.151 19.4115 17.1719 14.2344V9.51562C17.1719 4.31771 19.7917 1.71354 25.0312 1.70312C30.1979 1.70312 32.7812 4.30208 32.7812 9.5ZM39.0625 3.78125L43.7031 8.0625L43.6875 1.6875L48.4062 1.67188V22L43.7188 23.6875L43.7031 16.6562C43.776 15.2188 43.25 13.9948 42.125 12.9844L39.0469 10.1406L39.0312 21.9844L34.3438 22V1.59375H39.0625V3.78125ZM56.2188 15.75L51.5312 15.7656V6.375H50V1.6875H51.5312V0.140625H56.2188V1.6875H65.5938V12.5938C65.5938 18.875 62.9792 22.0208 57.75 22.0312H51.5V17.2812H57.7344C59.8594 17.2812 60.9167 15.7344 60.9062 12.6406V6.375H56.2188V15.75ZM73.3594 6.35938V9.5H77.4844V6.35938H73.3594ZM73.3906 14.125C73.2969 18 71.7344 20.6146 68.7031 21.9688L68.6875 22V21.9688C68.6667 21.9792 68.6458 21.9896 68.625 22L67.0469 17.2969C68.0469 16.5885 68.5938 15.5469 68.6875 14.1719V6.375H67.0781V1.6875H68.7031V0.140625H73.3906V1.6875H82.1719V21.9375L77.5312 23.5L77.4844 14.125H73.3906ZM88.1875 3.78125L92.8281 8.0625L92.8125 1.6875L97.5312 1.67188V22L92.8438 23.6875L92.8281 16.6562C92.901 15.2188 92.375 13.9948 91.25 12.9844L88.1719 10.1406L88.1562 21.9844L83.4688 22V1.59375H88.1875V3.78125ZM105.328 6.35938V9.5H109.453V6.35938H105.328ZM105.359 14.125C105.266 18 103.703 20.6146 100.672 21.9688L100.656 22V21.9688C100.635 21.9792 100.615 21.9896 100.594 22L99.0156 17.2969C100.016 16.5885 100.562 15.5469 100.656 14.1719V6.375H99.0469V1.6875H100.672V0.140625H105.359V1.6875H114.141V21.9375L109.5 23.5L109.453 14.125H105.359Z" fill="white"/>
</svg>
