<svg width="32" height="32" viewBox="0 0 32 32" fill="none" xmlns="http://www.w3.org/2000/svg">
<path d="M27.7643 20.1604L25.5108 17.9407C24.921 17.3857 24.1365 17.076 23.3208 17.076C22.5048 17.076 21.7203 17.3857 21.1304 17.9407L19.8621 19.1901H19.8623C19.6716 19.3796 19.4189 19.4962 19.149 19.5191C18.8791 19.542 18.6097 19.4697 18.3892 19.315C17.1932 18.4374 16.065 17.4737 15.0135 16.4321C13.9565 15.3961 12.9781 14.2849 12.0869 13.1073C11.9298 12.8899 11.8563 12.6245 11.8795 12.3586C11.9027 12.093 12.0211 11.8439 12.2138 11.6563L13.4918 10.3974C14.0737 9.82591 14.4009 9.04962 14.4009 8.23993C14.4009 7.43048 14.0737 6.65424 13.4918 6.0827L11.2577 3.90143C10.676 3.33041 9.88861 3.00977 9.06733 3.00977C8.2463 3.00977 7.45866 3.33044 6.87725 3.90143L4.08717 6.64966C3.65874 7.07524 3.36559 7.61475 3.24433 8.20203C3.12306 8.78925 3.17849 9.39862 3.40408 9.95538C5.0449 14.0099 7.5044 17.694 10.6329 20.7849C13.7742 23.8676 17.5178 26.2899 21.6372 27.9052C22.0063 28.0509 22.4003 28.1258 22.798 28.1262C23.6215 28.1281 24.4113 27.8063 24.9932 27.2326L27.7833 24.4844C28.363 23.9115 28.6885 23.1356 28.6885 22.3269C28.6885 21.5182 28.3629 20.7424 27.7833 20.1697L27.7643 20.1604Z" fill="white"/>
</svg>
