<svg width="32" height="32" viewBox="0 0 32 32" fill="none" xmlns="http://www.w3.org/2000/svg">
<g clip-path="url(#clip0_171_348)">
<mask id="mask0_171_348" style="mask-type:luminance" maskUnits="userSpaceOnUse" x="0" y="6" width="32" height="21">
<path d="M0.253906 6.04248H31.4723V26.3062H0.253906V6.04248Z" fill="white"/>
</mask>
<g mask="url(#mask0_171_348)">
<path d="M16.1072 15.9716C16.0913 15.9821 16.0746 15.9916 16.0574 16L16.0397 16.0078C16.0276 16.0133 16.016 16.0174 16.0031 16.0217L15.9818 16.0284C15.9697 16.0315 15.9574 16.0343 15.9453 16.0362L15.9252 16.0398L15.925 16.0396C15.9066 16.0422 15.8882 16.0436 15.8695 16.0436H15.8611C15.8446 16.0434 15.8284 16.0422 15.8122 16.04L15.7901 16.0365L15.7565 16.0293L15.734 16.0226L15.6991 16.0095L15.6807 16.0017H15.681C15.6655 15.9943 15.6505 15.9857 15.636 15.9764H15.6311L0.819093 6.25592C0.450937 6.76113 0.253183 7.36743 0.253908 7.9892V23.2608C0.256087 24.053 0.576316 24.8124 1.1444 25.3734C1.71273 25.9344 2.48296 26.2513 3.28726 26.2553H28.4387C29.243 26.2513 30.0135 25.9344 30.5816 25.3734C31.1499 24.8124 31.4699 24.053 31.4721 23.2608V7.9892C31.4723 7.29803 31.2278 6.62854 30.7808 6.0957L16.1069 15.97L16.1072 15.9716Z" fill="white"/>
</g>
<path d="M30.1305 5.51008C29.6318 5.1751 29.0422 4.99533 28.4385 4.99414H3.28708C2.60789 4.99557 1.94902 5.22231 1.41699 5.63812L15.8628 15.1138L30.1305 5.51008Z" fill="white"/>
</g>
<defs>
<clipPath id="clip0_171_348">
<rect width="31.7259" height="31.25" fill="white"/>
</clipPath>
</defs>
</svg>
