<svg width="36" height="35" viewBox="0 0 36 35" fill="none" xmlns="http://www.w3.org/2000/svg">
<path d="M17.9069 3.99902C12.3476 3.99902 7.83691 8.44184 7.83691 13.918C7.83691 19.2562 17.2774 30.3803 17.6619 30.8629C17.7319 30.9662 17.8368 31.0007 17.9417 31.0007C18.0466 31.0007 18.1515 30.9662 18.1515 30.8629C18.5712 30.4151 27.9765 19.2562 27.9765 13.918C27.9763 8.44204 23.4661 3.99902 17.9065 3.99902H17.9069ZM17.767 17.431C15.4944 17.431 13.6412 15.6056 13.6412 13.3671C13.6412 11.1283 15.4942 9.30317 17.767 9.30317C20.0396 9.30317 21.8928 11.1283 21.8928 13.3671C21.8928 15.6056 20.0396 17.431 17.767 17.431Z" fill="white"/>
</svg>
